<svg width="38" height="39" viewBox="0 0 38 39" fill="none" xmlns="http://www.w3.org/2000/svg">
<path d="M19.0001 3.52271C10.2696 3.52271 3.16675 10.6255 3.16675 19.356C3.16675 28.0865 10.2696 35.1894 19.0001 35.1894C27.7306 35.1894 34.8334 28.0865 34.8334 19.356C34.8334 10.6255 27.7306 3.52271 19.0001 3.52271ZM19.0001 32.0227C12.016 32.0227 6.33341 26.3401 6.33341 19.356C6.33341 12.372 12.016 6.68937 19.0001 6.68937C25.9842 6.68937 31.6667 12.372 31.6667 19.356C31.6667 26.3401 25.9842 32.0227 19.0001 32.0227Z" fill="white"/>
<path d="M23.4793 23.8336C22.9005 24.4104 22.2169 24.8715 21.4653 25.1921C20.112 25.7634 18.6022 25.8468 17.1943 25.428C15.7863 25.0092 14.5676 24.1143 13.7465 22.8962L11.1213 24.668C11.806 25.6784 12.6771 26.5489 13.6879 27.233C14.7165 27.9286 15.8723 28.4144 17.0889 28.6627C18.3505 28.9201 19.6511 28.9201 20.9127 28.6627C22.1292 28.4141 23.2849 27.9283 24.3137 27.233C24.8093 26.8973 25.2827 26.5078 25.7165 26.0756C26.1472 25.6465 26.5398 25.1715 26.8787 24.668L24.2535 22.8962C24.0259 23.2327 23.7667 23.5466 23.4793 23.8336Z" fill="white"/>
<path d="M13.4583 19.356C14.7699 19.356 15.8333 18.2926 15.8333 16.981C15.8333 15.6693 14.7699 14.606 13.4583 14.606C12.1466 14.606 11.0833 15.6693 11.0833 16.981C11.0833 18.2926 12.1466 19.356 13.4583 19.356Z" fill="white"/>
<path d="M24.5307 19.3338C25.8362 19.3338 26.8946 18.2754 26.8946 16.9699C26.8946 15.6643 25.8362 14.606 24.5307 14.606C23.2251 14.606 22.1667 15.6643 22.1667 16.9699C22.1667 18.2754 23.2251 19.3338 24.5307 19.3338Z" fill="white"/>
</svg>
