<svg width="70" height="71" viewBox="0 0 70 71" fill="none" xmlns="http://www.w3.org/2000/svg">
<circle cx="35" cy="35.356" r="33.5" stroke="white" stroke-width="3"/>
<path d="M34.2041 35.9015C34.2782 35.575 34.4458 35.2778 34.686 35.0465C34.7599 34.9726 34.8462 34.9125 34.9409 34.869L34.9501 34.8666C35.25 34.9183 35.5581 34.8489 35.8077 34.6735C36.0572 34.498 36.2284 34.2307 36.2841 33.9291C36.3397 33.6275 36.2755 33.316 36.1053 33.0618C35.935 32.8075 35.6724 32.631 35.3741 32.5704C34.4427 32.3719 33.6133 32.8577 33.1035 33.3413C32.5544 33.8575 32.1073 34.598 31.9358 35.4203C31.9045 35.5704 31.9028 35.7253 31.9308 35.8761C31.9588 36.027 32.0161 36.1707 32.0992 36.2993C32.1824 36.4278 32.2898 36.5385 32.4154 36.6252C32.5411 36.7118 32.6824 36.7727 32.8313 36.8043C32.9802 36.8359 33.1339 36.8376 33.2835 36.8093C33.4331 36.7811 33.5757 36.7234 33.7031 36.6395C33.8306 36.5557 33.9405 36.4474 34.0264 36.3207C34.1124 36.1941 34.1727 36.0516 34.2041 35.9015ZM35.6081 43.7969C36.6122 43.7969 37.6064 43.5976 38.5341 43.2102C39.4617 42.8228 40.3046 42.255 41.0146 41.5392C41.7246 40.8233 42.2878 39.9735 42.672 39.0383C43.0562 38.103 43.254 37.1006 43.254 36.0883C43.254 35.076 43.0562 34.0736 42.672 33.1384C42.2878 32.2031 41.7246 31.3533 41.0146 30.6375C40.3046 29.9217 39.4617 29.3539 38.5341 28.9665C37.6064 28.5791 36.6122 28.3797 35.6081 28.3797C33.5803 28.3797 31.6356 29.1919 30.2017 30.6375C28.7678 32.0832 27.9623 34.0439 27.9623 36.0883C27.9623 38.1328 28.7678 40.0935 30.2017 41.5392C31.6356 42.9848 33.5803 43.7969 35.6081 43.7969ZM35.6081 41.461C34.1948 41.461 32.8394 40.895 31.84 39.8874C30.8406 38.8798 30.2792 37.5133 30.2792 36.0883C30.2792 34.6634 30.8406 33.2969 31.84 32.2893C32.8394 31.2817 34.1948 30.7157 35.6081 30.7157C37.0215 30.7157 38.3769 31.2817 39.3763 32.2893C40.3756 33.2969 40.9371 34.6634 40.9371 36.0883C40.9371 37.5133 40.3756 38.8798 39.3763 39.8874C38.3769 40.895 37.0215 41.461 35.6081 41.461ZM37.7003 21.3812C39.5214 21.5004 41.2406 22.047 42.4825 22.8365C45.2674 24.6095 46.2892 26.2353 47.1789 27.7981C48.0686 29.3655 49 31.3627 49 34.4532C49 35.9015 48.8401 36.6256 48.7081 37.233L48.6849 37.3381C48.5737 37.8403 48.4833 38.2981 48.5783 39.4731C48.6831 41.0583 48.4048 42.6454 47.7674 44.0983C47.1395 45.5536 46.1432 46.9154 44.7948 47.7657C42.0538 49.4943 38.7453 49.8681 35.6429 48.6183C34.2643 48.0624 33.8403 47.9526 33.3769 47.9222C33.0209 47.9089 32.6645 47.9128 32.3088 47.9339H32.2949C31.8037 47.9526 31.1643 47.9783 30.2792 47.9783C26.2709 47.9783 23.6064 45.5559 22.2533 42.9327C20.2816 39.1087 20.3164 33.2852 24.6954 29.7976C25.9882 28.7698 26.3335 28.4568 26.7366 27.7794C27.4618 26.5624 28.1569 25.5953 29.0049 24.7567C29.8552 23.9157 30.819 23.243 32.0401 22.5679C33.8496 21.5634 35.8699 21.2598 37.7003 21.3812ZM37.5474 23.7125C36.0646 23.6144 34.503 23.8667 33.1545 24.6142C32.0563 25.2215 31.2824 25.7775 30.6291 26.4245C29.9687 27.0739 29.3895 27.8611 28.7245 28.9801C28.0758 30.0686 27.4108 30.6152 26.1296 31.6314C22.8604 34.2359 22.6982 38.7303 24.3108 41.8558C25.3673 43.9067 27.339 45.64 30.2792 45.64C31.1202 45.64 31.725 45.619 32.2115 45.6003H32.2532C32.7143 45.5816 33.1244 45.5653 33.5206 45.591C34.3964 45.647 35.1308 45.897 36.5025 46.4506C38.8912 47.413 41.426 47.1327 43.5691 45.7848C44.4171 45.2476 45.1469 44.3132 45.6451 43.1639C46.1386 42.0193 46.3587 40.7579 46.2707 39.6647C46.1525 38.2304 46.2707 37.5366 46.4213 36.8382L46.4467 36.7214C46.5626 36.1935 46.6831 35.6492 46.6831 34.4532C46.6831 31.9163 45.9463 30.3256 45.1678 28.9614C44.3893 27.5902 43.5992 26.3101 41.2452 24.8127C40.3764 24.2591 39.0441 23.8106 37.5474 23.7125Z" fill="white"/>
</svg>
