<svg width="70" height="71" viewBox="0 0 70 71" fill="none" xmlns="http://www.w3.org/2000/svg">
<circle cx="35" cy="35.356" r="33.5" stroke="white" stroke-width="3"/>
<path d="M35.0001 19.5227C26.2696 19.5227 19.1667 26.6255 19.1667 35.356C19.1667 44.0865 26.2696 51.1894 35.0001 51.1894C43.7306 51.1894 50.8334 44.0865 50.8334 35.356C50.8334 26.6255 43.7306 19.5227 35.0001 19.5227ZM35.0001 48.0227C28.016 48.0227 22.3334 42.3401 22.3334 35.356C22.3334 28.372 28.016 22.6894 35.0001 22.6894C41.9842 22.6894 47.6667 28.372 47.6667 35.356C47.6667 42.3401 41.9842 48.0227 35.0001 48.0227Z" fill="white"/>
<path d="M39.4793 39.8336C38.9005 40.4104 38.2169 40.8715 37.4653 41.1921C36.112 41.7634 34.6022 41.8468 33.1943 41.428C31.7863 41.0092 30.5676 40.1143 29.7465 38.8962L27.1213 40.668C27.806 41.6784 28.6771 42.5489 29.6879 43.233C30.7165 43.9286 31.8723 44.4144 33.0889 44.6627C34.3505 44.9201 35.6511 44.9201 36.9127 44.6627C38.1292 44.4141 39.2849 43.9283 40.3137 43.233C40.8093 42.8973 41.2827 42.5078 41.7165 42.0756C42.1472 41.6465 42.5398 41.1715 42.8787 40.668L40.2535 38.8962C40.0259 39.2327 39.7667 39.5466 39.4793 39.8336Z" fill="white"/>
<path d="M29.4583 35.356C30.7699 35.356 31.8333 34.2926 31.8333 32.981C31.8333 31.6693 30.7699 30.606 29.4583 30.606C28.1466 30.606 27.0833 31.6693 27.0833 32.981C27.0833 34.2926 28.1466 35.356 29.4583 35.356Z" fill="white"/>
<path d="M40.5307 35.3338C41.8362 35.3338 42.8946 34.2754 42.8946 32.9699C42.8946 31.6643 41.8362 30.606 40.5307 30.606C39.2251 30.606 38.1667 31.6643 38.1667 32.9699C38.1667 34.2754 39.2251 35.3338 40.5307 35.3338Z" fill="white"/>
</svg>
