<svg width="70" height="71" viewBox="0 0 70 71" fill="none" xmlns="http://www.w3.org/2000/svg">
<circle cx="35" cy="35.356" r="33.5" stroke="white" stroke-width="3"/>
<path d="M20 43.856V48.856C20 49.519 20.2634 50.1549 20.7322 50.6237C21.2011 51.0926 21.837 51.356 22.5 51.356H27.5M42.5 51.356H47.5C48.163 51.356 48.7989 51.0926 49.2678 50.6237C49.7366 50.1549 50 49.519 50 48.856V43.856M50 28.856V23.856C50 23.1929 49.7366 22.557 49.2678 22.0882C48.7989 21.6193 48.163 21.356 47.5 21.356H42.5M20 28.856V23.856C20 23.1929 20.2634 22.557 20.7322 22.0882C21.2011 21.6193 21.837 21.356 22.5 21.356H27.5M43.3333 36.356L35 44.6893L26.6667 36.356C25.8333 35.5226 25.4167 33.856 26.6667 32.1893C27.9167 30.5226 30.4167 30.5226 31.6667 31.356C32.9167 32.1893 33.3333 33.0226 35 33.0226C36.6667 33.0226 37.0833 32.1893 38.3333 31.356C39.5833 30.5226 42.0833 30.5226 43.3333 32.1893C44.5833 33.856 44.1667 35.5226 43.3333 36.356Z" stroke="white" stroke-width="4" stroke-linecap="round" stroke-linejoin="round"/>
</svg>
