<svg width="17" height="22" viewBox="0 0 17 22" fill="none" xmlns="http://www.w3.org/2000/svg">
<path d="M8.95997 20.2469C8.79856 20.3686 8.60521 20.434 8.4069 20.434C8.2086 20.434 8.01525 20.3686 7.85384 20.2469C3.08464 16.6552 -1.97689 9.26741 3.13995 3.92897C4.5442 2.46822 6.43628 1.65029 8.4069 1.6521C10.3821 1.6521 12.2774 2.47123 13.6739 3.92793C18.7907 9.26636 13.7292 16.6531 8.95997 20.2469Z" stroke="#657D04" stroke-width="1.5" stroke-linecap="round" stroke-linejoin="round"/>
<path d="M8.40687 11.0433C8.93074 11.0433 9.43315 10.8234 9.80357 10.432C10.174 10.0407 10.3821 9.50984 10.3821 8.95634C10.3821 8.40285 10.174 7.87202 9.80357 7.48064C9.43315 7.08926 8.93074 6.86938 8.40687 6.86938C7.88301 6.86938 7.3806 7.08926 7.01017 7.48064C6.63975 7.87202 6.43164 8.40285 6.43164 8.95634C6.43164 9.50984 6.63975 10.0407 7.01017 10.432C7.3806 10.8234 7.88301 11.0433 8.40687 11.0433Z" stroke="#657D04" stroke-width="1.5" stroke-linecap="round" stroke-linejoin="round"/>
</svg>
