<svg width="193" height="73" viewBox="0 0 193 73" fill="none" xmlns="http://www.w3.org/2000/svg">
<path d="M115.209 35.8108L109.812 38.3752L118.24 44.5161C120.622 46.2519 123.687 46.7117 126.494 45.7546L127.644 45.3627C131.328 44.1065 132.063 39.0894 128.885 36.8864C124.862 34.0977 119.673 33.6896 115.209 35.8108Z" fill="#657D04"/>
<path d="M109.392 38.5746L115.209 35.8108C119.673 33.6896 124.862 34.0977 128.885 36.8864V36.8864C132.063 39.0894 131.328 44.1065 127.644 45.3627L126.494 45.7546C123.687 46.7117 120.622 46.2519 118.24 44.5161L108.969 37.7613" stroke="#657D04"/>
<path d="M108.504 29.9035L108.105 36.5122L117.252 31.7839C119.911 30.4098 121.77 27.8675 122.273 24.9177L122.537 23.3747C123.19 19.5447 119.134 16.6516 115.726 18.517C111.521 20.8183 108.793 25.1188 108.504 29.9035Z" fill="#657D04"/>
<path d="M108.076 36.9888L108.504 29.9035C108.793 25.1188 111.521 20.8183 115.726 18.517V18.517C119.134 16.6516 123.19 19.5447 122.537 23.3747L122.273 24.9177C121.77 27.8675 119.911 30.4098 117.252 31.7839L107.183 36.9888" stroke="#657D04"/>
<ellipse cx="99.9405" cy="50.4047" rx="19.9881" ry="20.8571" fill="#F68631"/>
<path d="M19.1191 71.2619H12.1667V29.5476H36.5001V36.5H19.1191V48.0873H34.0667V54.2672H19.1191V71.2619Z" fill="white"/>
<path fill-rule="evenodd" clip-rule="evenodd" d="M59.0442 29.5476C69.2582 29.5477 77.5383 38.8614 77.5383 50.3504C77.5383 61.8395 69.2582 71.1532 59.0442 71.1533V29.5476Z" fill="#EE3E43"/>
<path fill-rule="evenodd" clip-rule="evenodd" d="M59.0442 70.4978V71.1533C69.2582 71.1532 77.5384 61.8395 77.5384 50.3504C77.5384 38.8614 69.2582 29.5477 59.0442 29.5476V30.203C67.0208 32.5124 72.9147 40.6572 72.9147 50.3504C72.9147 60.0436 67.0208 68.1884 59.0442 70.4978Z" fill="#657D04"/>
<path fill-rule="evenodd" clip-rule="evenodd" d="M56.7322 29.5476C46.5182 29.5476 38.238 38.8614 38.238 50.3504C38.238 61.8395 46.5182 71.1532 56.7322 71.1533V29.5476Z" fill="#EE3E43"/>
<path fill-rule="evenodd" clip-rule="evenodd" d="M56.7322 70.4978V71.1533C46.5181 71.1532 38.238 61.8395 38.238 50.3504C38.238 38.8614 46.5181 29.5476 56.7322 29.5476V30.203C48.7556 32.5124 42.8617 40.6572 42.8617 50.3504C42.8617 60.0437 48.7556 68.1884 56.7322 70.4978Z" fill="#657D04"/>
<path d="M133.833 35.5068C133.833 32.2199 135.975 29.5476 138.609 29.5476H145.772C155.002 29.5476 163.381 38.8868 163.381 50.4047C163.381 61.9227 155.002 71.2619 145.772 71.2619H138.609C135.975 71.2619 133.833 68.5896 133.833 65.3027V35.5068ZM145.772 35.5068H138.609V50.4047V65.3027H145.772C152.368 65.3027 157.71 58.6359 157.71 50.4047C157.71 42.1736 152.368 35.5068 145.772 35.5068Z" fill="white"/>
<path d="M133.833 35.5068C133.833 32.2199 135.975 29.5476 138.609 29.5476H145.772C155.002 29.5476 163.381 38.8868 163.381 50.4047C163.381 61.9227 155.002 71.2619 145.772 71.2619H138.609C135.975 71.2619 133.833 68.5896 133.833 65.3027V35.5068ZM145.772 35.5068H138.609V50.4047V65.3027H145.772C152.368 65.3027 157.71 58.6359 157.71 50.4047C157.71 42.1736 152.368 35.5068 145.772 35.5068Z" stroke="white"/>
<path d="M174.934 36.3784C173.296 37.1791 172.416 38.4081 172.172 40.0468C171.976 41.3595 172.115 42.2068 172.335 42.7841C172.563 43.3706 172.978 43.9386 173.696 44.5158C175.26 45.7634 177.632 46.5735 180.614 47.5417C180.696 47.5697 180.769 47.5976 180.851 47.6162C183.515 48.4821 186.718 49.5342 189.073 51.4056C190.353 52.4205 191.51 53.7798 192.219 55.6047C192.936 57.4482 193.099 59.5151 192.757 61.7776C192.162 65.7345 189.88 68.4532 186.905 69.9057C184.021 71.3209 180.459 71.5723 176.825 70.9205H176.809C174.853 70.5574 171.699 69.3284 169.67 68.537C169.279 68.3787 168.92 68.2484 168.627 68.1367C167.274 67.606 166.541 65.9208 166.989 64.3566C167.437 62.7924 168.92 61.9545 170.289 62.4665C170.689 62.6155 171.12 62.7831 171.585 62.9693C173.655 63.77 176.181 64.7569 177.648 65.0269C180.647 65.5576 183.149 65.2597 184.86 64.4218C186.498 63.6211 187.37 62.3921 187.623 60.7534C187.818 59.4406 187.68 58.5934 187.46 58.0161C187.231 57.4295 186.816 56.8616 186.099 56.2843C184.534 55.0367 182.163 54.2267 179.18 53.2584C179.099 53.2305 179.025 53.2026 178.944 53.1839C176.279 52.3181 173.076 51.266 170.721 49.3945C169.442 48.3797 168.285 47.0204 167.576 45.1955C166.858 43.352 166.695 41.2851 167.038 39.0226L169.605 39.5347L167.03 39.0319C167.624 35.0749 169.906 32.3563 172.881 30.9038C175.765 29.4886 179.327 29.2372 182.961 29.889C184.021 30.0752 187.231 30.7828 188.389 31.1366C189.782 31.5555 190.605 33.1942 190.238 34.7863C189.872 36.3784 188.437 37.3188 187.044 36.8998C186.131 36.6205 183.124 35.9501 182.146 35.7825C179.139 35.2425 176.646 35.5498 174.926 36.3877L174.934 36.3784Z" fill="white"/>
<path d="M11.4485 7.6H15.0685V11.78H18.1685V7.6H21.7885V19H18.1685V14.08H15.0685V19H11.4485V7.6ZM23.7113 7.6H32.0113V10H27.3113V12.08H31.2713V14.24H27.3113V16.56H31.9913V19H23.7113V7.6ZM40.1378 16.5H36.8178L36.2178 19H32.5378L36.2178 7.6H40.9178L44.4378 19H40.7378L40.1378 16.5ZM38.4578 10.06L37.2778 14.28H39.6578L38.5378 10.06H38.4578ZM45.3924 7.6H48.9924V16.36H53.6524V19H45.3924V7.6ZM58.6389 19H55.0389V10.1H51.8189V7.6H61.8589V10.1H58.6389V19ZM63.0305 7.6H66.6505V11.78H69.7505V7.6H73.3705V19H69.7505V14.08H66.6505V19H63.0305V7.6ZM81.6933 15.36V19H78.0933V15.4L74.2533 7.6H77.9133L79.4333 11.3C79.5933 11.6733 79.74 12.0667 79.8733 12.48H79.9133C80.06 12.0267 80.2066 11.62 80.3533 11.26L81.8533 7.6H85.4933L81.6933 15.36Z" fill="white"/>
</svg>
