<svg width="111" height="42" viewBox="0 0 111 42" fill="none" xmlns="http://www.w3.org/2000/svg">
<path d="M66.2846 20.6035L63.1793 22.0789L68.0285 25.612C69.3992 26.6107 71.1623 26.8752 72.7776 26.3246L73.4389 26.0991C75.5588 25.3764 75.9813 22.4898 74.1528 21.2223C71.8382 19.6179 68.8533 19.3831 66.2846 20.6035Z" fill="#657D04"/>
<path d="M62.9378 22.1937L66.2846 20.6035C68.8533 19.3831 71.8382 19.6179 74.1528 21.2223V21.2223C75.9813 22.4898 75.5588 25.3764 73.4389 26.0991L72.7776 26.3246C71.1623 26.8752 69.3992 26.6107 68.0285 25.612L62.6945 21.7257" stroke="#657D04"/>
<path d="M62.4271 17.2048L62.1972 21.0071L67.4602 18.2866C68.9897 17.4961 70.0593 16.0334 70.349 14.3362L70.5006 13.4485C70.8767 11.2449 68.543 9.58042 66.582 10.6537C64.1627 11.9777 62.5935 14.4519 62.4271 17.2048Z" fill="#657D04"/>
<path d="M62.1806 21.2812L62.4271 17.2048C62.5935 14.4519 64.1627 11.9777 66.582 10.6537V10.6537C68.543 9.58042 70.8767 11.2449 70.5006 13.4485L70.349 14.3362C70.0593 16.0334 68.9897 17.4961 67.4602 18.2866L61.6667 21.2812" stroke="#657D04"/>
<ellipse cx="57.5" cy="29" rx="11.5" ry="12" fill="#F68631"/>
<path d="M11 41H7V17H21V21H11V27.6667H19.6V31.2222H11V41Z" fill="#323E02"/>
<path fill-rule="evenodd" clip-rule="evenodd" d="M33.9706 17C39.8472 17 44.6111 22.3586 44.6111 28.9688C44.6111 35.5789 39.8472 40.9375 33.9706 40.9375V17Z" fill="#EE3E43"/>
<path fill-rule="evenodd" clip-rule="evenodd" d="M33.9707 40.5604V40.9375C39.8473 40.9375 44.6112 35.5789 44.6112 28.9688C44.6112 22.3586 39.8473 17 33.9707 17V17.3771C38.56 18.7058 41.951 23.3918 41.951 28.9688C41.951 34.5457 38.56 39.2317 33.9707 40.5604Z" fill="#657D04"/>
<path fill-rule="evenodd" clip-rule="evenodd" d="M32.6405 17C26.7639 17 22 22.3586 22 28.9688C22 35.5789 26.7639 40.9375 32.6405 40.9375V17Z" fill="#EE3E43"/>
<path fill-rule="evenodd" clip-rule="evenodd" d="M32.6404 40.5604V40.9375C26.7638 40.9375 21.9999 35.5789 21.9999 28.9688C21.9999 22.3586 26.7638 17 32.6404 17V17.3771C28.0511 18.7058 24.6601 23.3918 24.6601 28.9688C24.6601 34.5457 28.0511 39.2317 32.6404 40.5604Z" fill="#657D04"/>
<path d="M77 20.4286C77 18.5375 78.2321 17 79.7475 17H83.8687C89.179 17 94 22.3732 94 29C94 35.6268 89.179 41 83.8687 41H79.7475C78.2321 41 77 39.4625 77 37.5714V20.4286ZM83.8687 20.4286H79.7475V29V37.5714H83.8687C87.6636 37.5714 90.7374 33.7357 90.7374 29C90.7374 24.2643 87.6636 20.4286 83.8687 20.4286Z" fill="#323E02"/>
<path d="M77 20.4286C77 18.5375 78.2321 17 79.7475 17H83.8687C89.179 17 94 22.3732 94 29C94 35.6268 89.179 41 83.8687 41H79.7475C78.2321 41 77 39.4625 77 37.5714V20.4286ZM83.8687 20.4286H79.7475V29V37.5714H83.8687C87.6636 37.5714 90.7374 33.7357 90.7374 29C90.7374 24.2643 87.6636 20.4286 83.8687 20.4286Z" stroke="black"/>
<path d="M100.647 20.9301C99.7047 21.3907 99.1983 22.0978 99.0577 23.0406C98.9451 23.7959 99.0248 24.2834 99.1514 24.6155C99.2827 24.953 99.5218 25.2797 99.9344 25.6119C100.835 26.3297 102.199 26.7957 103.915 27.3528C103.962 27.3689 104.004 27.3849 104.051 27.3957C105.584 27.8938 107.427 28.4991 108.782 29.5759C109.518 30.1597 110.184 30.9418 110.592 31.9917C111.004 33.0524 111.098 34.2416 110.901 35.5433C110.559 37.8199 109.246 39.3841 107.535 40.2197C105.875 41.0339 103.826 41.1786 101.735 40.8036H101.725C100.6 40.5947 98.7857 39.8876 97.6183 39.4323C97.3932 39.3412 97.1869 39.2662 97.0181 39.2019C96.2398 38.8966 95.8179 37.927 96.0757 37.0271C96.3336 36.1272 97.1869 35.645 97.9746 35.9397C98.2043 36.0254 98.4528 36.1218 98.7201 36.2289C99.911 36.6896 101.364 37.2574 102.208 37.4128C103.934 37.7181 105.373 37.5467 106.358 37.0646C107.3 36.6039 107.802 35.8968 107.947 34.954C108.06 34.1987 107.98 33.7113 107.853 33.3791C107.722 33.0417 107.483 32.7149 107.07 32.3828C106.17 31.665 104.806 31.1989 103.09 30.6418C103.043 30.6258 103.001 30.6097 102.954 30.599C101.421 30.1008 99.5781 29.4955 98.2231 28.4188C97.487 27.8349 96.8212 27.0528 96.4133 26.0029C96.0007 24.9423 95.9069 23.7531 96.1039 22.4514L97.5808 22.746L96.0992 22.4567C96.4414 20.1801 97.7542 18.6159 99.4656 17.7803C101.125 16.9661 103.174 16.8214 105.265 17.1964C105.875 17.3035 107.722 17.7107 108.388 17.9142C109.19 18.1553 109.663 19.098 109.452 20.0141C109.241 20.9301 108.416 21.4711 107.614 21.23C107.089 21.0693 105.359 20.6836 104.796 20.5872C103.066 20.2765 101.632 20.4533 100.642 20.9354L100.647 20.9301Z" fill="#323E02"/>
<path d="M6.714 6.02H9.248V8.946H11.418V6.02H13.952V14H11.418V10.556H9.248V14H6.714V6.02ZM15.298 6.02H21.108V7.7H17.818V9.156H20.59V10.668H17.818V12.292H21.094V14H15.298V6.02ZM26.7966 12.25H24.4726L24.0526 14H21.4766L24.0526 6.02H27.3426L29.8066 14H27.2166L26.7966 12.25ZM25.6206 7.742L24.7946 10.696H26.4606L25.6766 7.742H25.6206ZM30.4747 6.02H32.9947V12.152H36.2567V14H30.4747V6.02ZM39.7473 14H37.2273V7.77H34.9733V6.02H42.0013V7.77H39.7473V14ZM42.8214 6.02H45.3554V8.946H47.5254V6.02H50.0594V14H47.5254V10.556H45.3554V14H42.8214V6.02ZM55.8854 11.452V14H53.3654V11.48L50.6774 6.02H53.2394L54.3034 8.61C54.4154 8.87133 54.5181 9.14667 54.6114 9.436H54.6394C54.7421 9.11867 54.8447 8.834 54.9474 8.582L55.9974 6.02H58.5454L55.8854 11.452Z" fill="#323E02"/>
</svg>
