<svg width="111" height="42" viewBox="0 0 111 42" fill="none" xmlns="http://www.w3.org/2000/svg">
<path d="M66.2846 20.6035L63.1792 22.0789L68.0285 25.612C69.3991 26.6107 71.1623 26.8752 72.7775 26.3246L73.4389 26.0991C75.5587 25.3764 75.9812 22.4898 74.1527 21.2223C71.8381 19.6179 68.8532 19.3831 66.2846 20.6035Z" fill="#657D04"/>
<path d="M62.9378 22.1937L66.2846 20.6035C68.8532 19.3831 71.8381 19.6179 74.1527 21.2223V21.2223C75.9812 22.4898 75.5587 25.3764 73.4389 26.0991L72.7775 26.3246C71.1623 26.8752 69.3991 26.6107 68.0285 25.612L62.6944 21.7257" stroke="#657D04"/>
<path d="M62.427 17.2048L62.1971 21.0071L67.4601 18.2866C68.9896 17.4961 70.0592 16.0334 70.3489 14.3362L70.5005 13.4485C70.8766 11.2449 68.5429 9.58042 66.5819 10.6537C64.1627 11.9777 62.5934 14.4519 62.427 17.2048Z" fill="#657D04"/>
<path d="M62.1806 21.2812L62.427 17.2048C62.5934 14.4519 64.1627 11.9777 66.5819 10.6537V10.6537C68.5429 9.58042 70.8766 11.2449 70.5005 13.4485L70.3489 14.3362C70.0592 16.0334 68.9896 17.4961 67.4601 18.2866L61.6667 21.2812" stroke="#657D04"/>
<ellipse cx="5.5" cy="29" rx="11.5" ry="12" fill="#F68631"/>
<path d="M11 41H7V17H21V21H11V27.6667H19.6V31.2222H11V41Z" fill="#323E02"/>
<path fill-rule="evenodd" clip-rule="evenodd" d="M33.9706 17C39.8472 17 44.6111 22.3586 44.6111 28.9688C44.6111 35.5789 39.8472 40.9375 33.9706 40.9375V17Z" fill="#EE3E43"/>
<path fill-rule="evenodd" clip-rule="evenodd" d="M33.9706 40.5604V40.9375C39.8472 40.9375 44.6111 35.5789 44.6111 28.9688C44.6111 22.3586 39.8472 17 33.9706 17V17.3771C38.5599 18.7058 41.9509 23.3918 41.9509 28.9688C41.9509 34.5457 38.5599 39.2317 33.9706 40.5604Z" fill="#657D04"/>
<path fill-rule="evenodd" clip-rule="evenodd" d="M32.6405 17C26.7639 17 22 22.3586 22 28.9688C22 35.5789 26.7639 40.9375 32.6405 40.9375V17Z" fill="#EE3E43"/>
<path fill-rule="evenodd" clip-rule="evenodd" d="M32.6405 40.5604V40.9375C26.7639 40.9375 22 35.5789 22 28.9688C22 22.3586 26.7639 17 32.6405 17V17.3771C28.0512 18.7058 24.6602 23.3918 24.6602 28.9688C24.6602 34.5457 28.0512 39.2317 32.6405 40.5604Z" fill="#657D04"/>
<path d="M77 20.52C77 18.6254 78.2321 17.0851 79.7475 17.0851H83.8687C89.179 17.0851 94 22.4682 94 29.1073C94 35.7463 89.179 41.1295 83.8687 41.1295H79.7475C78.2321 41.1295 77 39.5891 77 37.6945V20.52ZM83.8687 20.52H79.7475V29.1073V37.6945H83.8687C87.6636 37.6945 90.7374 33.8517 90.7374 29.1073C90.7374 24.3628 87.6636 20.52 83.8687 20.52Z" fill="#323E02"/>
<path d="M77 20.52C77 18.6254 78.2321 17.0851 79.7475 17.0851H83.8687C89.179 17.0851 94 22.4682 94 29.1073C94 35.7463 89.179 41.1295 83.8687 41.1295H79.7475C78.2321 41.1295 77 39.5891 77 37.6945V20.52ZM83.8687 20.52H79.7475V29.1073V37.6945H83.8687C87.6636 37.6945 90.7374 33.8517 90.7374 29.1073C90.7374 24.3628 87.6636 20.52 83.8687 20.52Z" stroke="black"/>
<path d="M100.647 21.0224C99.7047 21.4839 99.1983 22.1923 99.0577 23.1369C98.9451 23.8936 99.0248 24.3819 99.1514 24.7147C99.2827 25.0528 99.5218 25.3801 99.9344 25.7129C100.835 26.432 102.199 26.8989 103.915 27.457C103.962 27.4731 104.004 27.4892 104.051 27.4999C105.584 27.999 107.427 28.6055 108.782 29.6842C109.518 30.2691 110.184 31.0527 110.592 32.1045C111.004 33.1671 111.098 34.3585 110.901 35.6626C110.559 37.9435 109.246 39.5105 107.535 40.3477C105.875 41.1635 103.826 41.3083 101.735 40.9327H101.725C100.6 40.7234 98.7857 40.015 97.6183 39.5588C97.3932 39.4676 97.1869 39.3925 97.0181 39.3281C96.2398 39.0222 95.8179 38.0508 96.0757 37.1492C96.3336 36.2476 97.1869 35.7646 97.9746 36.0598C98.2043 36.1456 98.4528 36.2422 98.7201 36.3496C99.911 36.8111 101.364 37.38 102.208 37.5356C103.934 37.8415 105.373 37.6698 106.358 37.1868C107.3 36.7252 107.802 36.0168 107.947 35.0723C108.06 34.3156 107.98 33.8272 107.853 33.4945C107.722 33.1564 107.483 32.829 107.07 32.4963C106.17 31.7772 104.806 31.3103 103.09 30.7521C103.043 30.736 103.001 30.7199 102.954 30.7092C101.421 30.2101 99.5781 29.6037 98.2231 28.525C97.487 27.94 96.8212 27.1565 96.4133 26.1046C96.0007 25.042 95.9069 23.8506 96.1039 22.5465L97.5808 22.8417L96.0992 22.5519C96.4414 20.2711 97.7542 18.704 99.4656 17.8668C101.125 17.0511 103.174 16.9062 105.265 17.2818C105.875 17.3892 107.722 17.797 108.388 18.001C109.19 18.2425 109.663 19.187 109.452 20.1047C109.241 21.0224 108.416 21.5644 107.614 21.3229C107.089 21.1619 105.359 20.7755 104.796 20.6789C103.066 20.3677 101.632 20.5448 100.642 21.0278L100.647 21.0224Z" fill="#323E02"/>
<path d="M6.714 6.02H9.248V8.946H11.418V6.02H13.952V14H11.418V10.556H9.248V14H6.714V6.02ZM15.298 6.02H21.108V7.7H17.818V9.156H20.59V10.668H17.818V12.292H21.094V14H15.298V6.02ZM26.7966 12.25H24.4726L24.0526 14H21.4766L24.0526 6.02H27.3426L29.8066 14H27.2166L26.7966 12.25ZM25.6206 7.742L24.7946 10.696H26.4606L25.6766 7.742H25.6206ZM30.4747 6.02H32.9947V12.152H36.2567V14H30.4747V6.02ZM39.7473 14H37.2273V7.77H34.9733V6.02H42.0013V7.77H39.7473V14ZM42.8214 6.02H45.3554V8.946H47.5254V6.02H50.0594V14H47.5254V10.556H45.3554V14H42.8214V6.02ZM55.8854 11.452V14H53.3654V11.48L50.6774 6.02H53.2394L54.3034 8.61C54.4154 8.87133 54.5181 9.14667 54.6114 9.436H54.6394C54.7421 9.11867 54.8447 8.834 54.9474 8.582L55.9974 6.02H58.5454L55.8854 11.452Z" fill="#323E02"/>
</svg>
