<svg width="16" height="19" viewBox="0 0 16 19" fill="none" xmlns="http://www.w3.org/2000/svg">
<path d="M12.44 3.71467C11.7564 2.93429 11.3797 1.9321 11.38 0.894672H8.29V13.2947C8.26617 13.9657 7.98287 14.6013 7.49977 15.0676C7.01666 15.5339 6.37145 15.7946 5.7 15.7947C4.28 15.7947 3.1 14.6347 3.1 13.1947C3.1 11.4747 4.76 10.1847 6.47 10.7147V7.55467C3.02 7.09467 0 9.77467 0 13.1947C0 16.5247 2.76 18.8947 5.69 18.8947C8.83 18.8947 11.38 16.3447 11.38 13.1947V6.90467C12.633 7.80452 14.1374 8.28732 15.68 8.28467V5.19467C15.68 5.19467 13.8 5.28467 12.44 3.71467Z" fill="white"/>
</svg>
