<svg width="22" height="18" viewBox="0 0 22 18" fill="none" xmlns="http://www.w3.org/2000/svg">
<path d="M21.14 2.89467C20.37 3.24467 19.54 3.47467 18.68 3.58467C19.56 3.05467 20.24 2.21467 20.56 1.20467C19.73 1.70467 18.81 2.05467 17.84 2.25467C17.05 1.39467 15.94 0.894672 14.68 0.894672C12.33 0.894672 10.41 2.81467 10.41 5.18467C10.41 5.52467 10.45 5.85467 10.52 6.16467C6.95997 5.98467 3.78997 4.27467 1.67997 1.68467C1.30997 2.31467 1.09997 3.05467 1.09997 3.83467C1.09997 5.32467 1.84997 6.64467 3.00997 7.39467C2.29997 7.39467 1.63997 7.19467 1.05997 6.89467V6.92467C1.05997 9.00467 2.53997 10.7447 4.49997 11.1347C3.8707 11.3069 3.21007 11.3308 2.56997 11.2047C2.84158 12.0572 3.37351 12.8031 4.09099 13.3376C4.80847 13.8721 5.67542 14.1684 6.56997 14.1847C5.0536 15.3851 3.17397 16.034 1.23997 16.0247C0.899971 16.0247 0.559971 16.0047 0.219971 15.9647C2.11997 17.1847 4.37997 17.8947 6.79997 17.8947C14.68 17.8947 19.01 11.3547 19.01 5.68467C19.01 5.49467 19.01 5.31467 19 5.12467C19.84 4.52467 20.56 3.76467 21.14 2.89467Z" fill="white"/>
</svg>
