<svg width="21" height="21" viewBox="0 0 21 21" fill="none" xmlns="http://www.w3.org/2000/svg">
<path d="M10.6799 0.894672C5.15993 0.894672 0.679932 5.37467 0.679932 10.8947C0.679932 16.4147 5.15993 20.8947 10.6799 20.8947C16.1999 20.8947 20.6799 16.4147 20.6799 10.8947C20.6799 5.37467 16.1999 0.894672 10.6799 0.894672ZM15.3199 7.69467C15.1699 9.27467 14.5199 13.1147 14.1899 14.8847C14.0499 15.6347 13.7699 15.8847 13.5099 15.9147C12.9299 15.9647 12.4899 15.5347 11.9299 15.1647C11.0499 14.5847 10.5499 14.2247 9.69993 13.6647C8.70993 13.0147 9.34993 12.6547 9.91993 12.0747C10.0699 11.9247 12.6299 9.59467 12.6799 9.38467C12.6869 9.35287 12.686 9.31984 12.6772 9.28848C12.6685 9.25711 12.6523 9.22834 12.6299 9.20467C12.5699 9.15467 12.4899 9.17467 12.4199 9.18467C12.3299 9.20467 10.9299 10.1347 8.19993 11.9747C7.79993 12.2447 7.43993 12.3847 7.11993 12.3747C6.75993 12.3647 6.07993 12.1747 5.56993 12.0047C4.93993 11.8047 4.44993 11.6947 4.48993 11.3447C4.50993 11.1647 4.75993 10.9847 5.22993 10.7947C8.14993 9.52467 10.0899 8.68467 11.0599 8.28467C13.8399 7.12467 14.4099 6.92467 14.7899 6.92467C14.8699 6.92467 15.0599 6.94467 15.1799 7.04467C15.2799 7.12467 15.3099 7.23467 15.3199 7.31467C15.3099 7.37467 15.3299 7.55467 15.3199 7.69467Z" fill="white"/>
</svg>
