<svg width="21" height="21" viewBox="0 0 21 21" fill="none" xmlns="http://www.w3.org/2000/svg">
<path d="M7.71993 20.4347C8.67993 20.7247 9.64993 20.8947 10.6799 20.8947C13.3321 20.8947 15.8756 19.8411 17.751 17.9657C19.6264 16.0904 20.6799 13.5468 20.6799 10.8947C20.6799 9.58145 20.4213 8.28109 19.9187 7.06784C19.4162 5.85458 18.6796 4.75219 17.751 3.8236C16.8224 2.89502 15.72 2.15842 14.5068 1.65588C13.2935 1.15333 11.9932 0.894672 10.6799 0.894672C9.36671 0.894672 8.06635 1.15333 6.8531 1.65588C5.63984 2.15842 4.53745 2.89502 3.60886 3.8236C1.7335 5.69897 0.679932 8.24251 0.679932 10.8947C0.679932 15.1447 3.34993 18.7947 7.11993 20.2347C7.02993 19.4547 6.93993 18.1647 7.11993 17.2747L8.26993 12.3347C8.26993 12.3347 7.97993 11.7547 7.97993 10.8347C7.97993 9.45467 8.83993 8.42467 9.81993 8.42467C10.6799 8.42467 11.0799 9.05467 11.0799 9.86467C11.0799 10.7247 10.5099 11.9547 10.2199 13.1347C10.0499 14.1147 10.7399 14.9747 11.7399 14.9747C13.5199 14.9747 14.8999 13.0747 14.8999 10.3947C14.8999 7.99467 13.1799 6.35467 10.7099 6.35467C7.88993 6.35467 6.22993 8.45467 6.22993 10.6647C6.22993 11.5247 6.50993 12.3947 6.96993 12.9647C7.05993 13.0247 7.05993 13.1047 7.02993 13.2547L6.73993 14.3447C6.73993 14.5147 6.62993 14.5747 6.45993 14.4547C5.17993 13.8947 4.43993 12.0747 4.43993 10.6047C4.43993 7.44467 6.67993 4.57467 10.9999 4.57467C14.4399 4.57467 17.1199 7.04467 17.1199 10.3247C17.1199 13.7647 14.9899 16.5247 11.9399 16.5247C10.9699 16.5247 10.0199 16.0047 9.67993 15.3947L9.00993 17.7647C8.77993 18.6247 8.14993 19.7747 7.71993 20.4647V20.4347Z" fill="white"/>
</svg>
