<svg width="21" height="21" viewBox="0 0 21 21" fill="none" xmlns="http://www.w3.org/2000/svg">
<path d="M6.47993 0.894672H14.8799C18.0799 0.894672 20.6799 3.49467 20.6799 6.69467V15.0947C20.6799 16.6329 20.0689 18.1082 18.9812 19.1959C17.8934 20.2836 16.4182 20.8947 14.8799 20.8947H6.47993C3.27993 20.8947 0.679932 18.2947 0.679932 15.0947V6.69467C0.679932 5.15642 1.291 3.68116 2.37871 2.59345C3.46642 1.50574 4.94168 0.894672 6.47993 0.894672ZM6.27993 2.89467C5.32515 2.89467 4.40948 3.27396 3.73435 3.94909C3.05922 4.62422 2.67993 5.53989 2.67993 6.49467V15.2947C2.67993 17.2847 4.28993 18.8947 6.27993 18.8947H15.0799C16.0347 18.8947 16.9504 18.5154 17.6255 17.8403C18.3006 17.1651 18.6799 16.2495 18.6799 15.2947V6.49467C18.6799 4.50467 17.0699 2.89467 15.0799 2.89467H6.27993ZM15.9299 4.39467C16.2615 4.39467 16.5794 4.52637 16.8138 4.76079C17.0482 4.99521 17.1799 5.31315 17.1799 5.64467C17.1799 5.97619 17.0482 6.29414 16.8138 6.52856C16.5794 6.76298 16.2615 6.89467 15.9299 6.89467C15.5984 6.89467 15.2805 6.76298 15.046 6.52856C14.8116 6.29414 14.6799 5.97619 14.6799 5.64467C14.6799 5.31315 14.8116 4.99521 15.046 4.76079C15.2805 4.52637 15.5984 4.39467 15.9299 4.39467ZM10.6799 5.89467C12.006 5.89467 13.2778 6.42146 14.2155 7.35914C15.1531 8.29682 15.6799 9.56859 15.6799 10.8947C15.6799 12.2208 15.1531 13.4925 14.2155 14.4302C13.2778 15.3679 12.006 15.8947 10.6799 15.8947C9.35385 15.8947 8.08208 15.3679 7.1444 14.4302C6.20672 13.4925 5.67993 12.2208 5.67993 10.8947C5.67993 9.56859 6.20672 8.29682 7.1444 7.35914C8.08208 6.42146 9.35385 5.89467 10.6799 5.89467ZM10.6799 7.89467C9.88428 7.89467 9.12122 8.21074 8.55861 8.77335C7.996 9.33596 7.67993 10.099 7.67993 10.8947C7.67993 11.6903 7.996 12.4534 8.55861 13.016C9.12122 13.5786 9.88428 13.8947 10.6799 13.8947C11.4756 13.8947 12.2386 13.5786 12.8013 13.016C13.3639 12.4534 13.6799 11.6903 13.6799 10.8947C13.6799 10.099 13.3639 9.33596 12.8013 8.77335C12.2386 8.21074 11.4756 7.89467 10.6799 7.89467Z" fill="white"/>
</svg>
