<svg width="28" height="29" viewBox="0 0 28 29" fill="none" xmlns="http://www.w3.org/2000/svg">
<path d="M13.2041 14.9015C13.2782 14.575 13.4458 14.2778 13.686 14.0465C13.7599 13.9726 13.8462 13.9125 13.9409 13.869L13.9501 13.8666C14.25 13.9183 14.5581 13.8489 14.8077 13.6735C15.0572 13.498 15.2284 13.2307 15.2841 12.9291C15.3397 12.6275 15.2755 12.316 15.1053 12.0618C14.935 11.8075 14.6724 11.631 14.3741 11.5704C13.4427 11.3719 12.6133 11.8577 12.1035 12.3413C11.5544 12.8575 11.1073 13.598 10.9358 14.4203C10.9045 14.5704 10.9028 14.7253 10.9308 14.8761C10.9588 15.027 11.0161 15.1707 11.0992 15.2993C11.1824 15.4278 11.2898 15.5385 11.4154 15.6252C11.5411 15.7118 11.6824 15.7727 11.8313 15.8043C11.9802 15.8359 12.1339 15.8376 12.2835 15.8093C12.4331 15.7811 12.5757 15.7234 12.7031 15.6395C12.8306 15.5557 12.9405 15.4474 13.0264 15.3207C13.1124 15.1941 13.1727 15.0516 13.2041 14.9015ZM14.6081 22.7969C15.6122 22.7969 16.6064 22.5976 17.5341 22.2102C18.4617 21.8228 19.3046 21.255 20.0146 20.5392C20.7246 19.8233 21.2878 18.9735 21.672 18.0383C22.0562 17.103 22.254 16.1006 22.254 15.0883C22.254 14.076 22.0562 13.0736 21.672 12.1384C21.2878 11.2031 20.7246 10.3533 20.0146 9.63752C19.3046 8.92171 18.4617 8.3539 17.5341 7.96651C16.6064 7.57911 15.6122 7.37972 14.6081 7.37972C12.5803 7.37972 10.6356 8.19188 9.20169 9.63752C7.76781 11.0832 6.96226 13.0439 6.96226 15.0883C6.96226 17.1328 7.76781 19.0935 9.20169 20.5392C10.6356 21.9848 12.5803 22.7969 14.6081 22.7969ZM14.6081 20.461C13.1948 20.461 11.8394 19.895 10.84 18.8874C9.84063 17.8798 9.27919 16.5133 9.27919 15.0883C9.27919 13.6634 9.84063 12.2969 10.84 11.2893C11.8394 10.2817 13.1948 9.71567 14.6081 9.71567C16.0215 9.71567 17.3769 10.2817 18.3763 11.2893C19.3756 12.2969 19.9371 13.6634 19.9371 15.0883C19.9371 16.5133 19.3756 17.8798 18.3763 18.8874C17.3769 19.895 16.0215 20.461 14.6081 20.461ZM16.7003 0.381234C18.5214 0.500367 20.2406 1.04698 21.4825 1.83653C24.2674 3.60951 25.2892 5.23532 26.1789 6.79807C27.0686 8.36549 28 10.3627 28 13.4532C28 14.9015 27.8401 15.6256 27.7081 16.233L27.6849 16.3381C27.5737 16.8403 27.4833 17.2981 27.5783 18.4731C27.6831 20.0583 27.4048 21.6454 26.7674 23.0983C26.1395 24.5536 25.1432 25.9154 23.7948 26.7657C21.0538 28.4943 17.7453 28.8681 14.6429 27.6183C13.2643 27.0624 12.8403 26.9526 12.3769 26.9222C12.0209 26.9089 11.6645 26.9128 11.3088 26.9339H11.2949C10.8037 26.9526 10.1643 26.9783 9.27919 26.9783C5.2709 26.9783 2.60643 24.5559 1.25334 21.9327C-0.718364 18.1087 -0.68361 12.2852 3.69539 8.79764C4.98824 7.76982 5.33346 7.45681 5.73661 6.77938C6.46181 5.56236 7.15689 4.59528 8.00488 3.75667C8.8552 2.91573 9.81904 2.24298 11.0401 1.56789C12.8496 0.563437 14.8699 0.259765 16.7003 0.381234ZM16.5474 2.71251C15.0646 2.6144 13.503 2.86668 12.1545 3.61418C11.0563 4.22153 10.2824 4.77748 9.62905 5.42454C8.96873 6.07393 8.38949 6.86114 7.72453 7.98006C7.07579 9.06861 6.41083 9.61522 5.12957 10.6314C1.86038 13.2359 1.6982 17.7303 3.31078 20.8558C4.3673 22.9067 6.33901 24.64 9.27919 24.64C10.1202 24.64 10.725 24.619 11.2115 24.6003H11.2532C11.7143 24.5816 12.1244 24.5653 12.5206 24.591C13.3964 24.647 14.1308 24.897 15.5025 25.4506C17.8912 26.413 20.426 26.1327 22.5691 24.7848C23.4171 24.2476 24.1469 23.3132 24.6451 22.1639C25.1386 21.0193 25.3587 19.7579 25.2707 18.6647C25.1525 17.2304 25.2707 16.5366 25.4213 15.8382L25.4467 15.7214C25.5626 15.1935 25.6831 14.6492 25.6831 13.4532C25.6831 10.9163 24.9463 9.32556 24.1678 7.96137C23.3893 6.59017 22.5992 5.31007 20.2452 3.81274C19.3764 3.25912 18.0441 2.81062 16.5474 2.71251Z" fill="white"/>
</svg>
