<svg width="34" height="35" viewBox="0 0 34 35" fill="none" xmlns="http://www.w3.org/2000/svg">
<path d="M2 24.856V29.856C2 30.519 2.26339 31.1549 2.73223 31.6237C3.20107 32.0926 3.83696 32.356 4.5 32.356H9.5M24.5 32.356H29.5C30.163 32.356 30.7989 32.0926 31.2678 31.6237C31.7366 31.1549 32 30.519 32 29.856V24.856M32 9.85596V4.85596C32 4.19292 31.7366 3.55703 31.2678 3.08819C30.7989 2.61935 30.163 2.35596 29.5 2.35596H24.5M2 9.85596V4.85596C2 4.19292 2.26339 3.55703 2.73223 3.08819C3.20107 2.61935 3.83696 2.35596 4.5 2.35596H9.5M25.3333 17.356L17 25.6893L8.66667 17.356C7.83333 16.5226 7.41667 14.856 8.66667 13.1893C9.91667 11.5226 12.4167 11.5226 13.6667 12.356C14.9167 13.1893 15.3333 14.0226 17 14.0226C18.6667 14.0226 19.0833 13.1893 20.3333 12.356C21.5833 11.5226 24.0833 11.5226 25.3333 13.1893C26.5833 14.856 26.1667 16.5226 25.3333 17.356Z" stroke="white" stroke-width="4" stroke-linecap="round" stroke-linejoin="round"/>
</svg>
