<svg width="15" height="14" viewBox="0 0 15 14" fill="none" xmlns="http://www.w3.org/2000/svg">
<path d="M0 0.460784C0 0.338577 0.0523512 0.221374 0.145537 0.134961C0.238723 0.0485468 0.36511 0 0.496894 0H1.98758C2.09842 2.83949e-05 2.20606 0.0344212 2.2934 0.0977091C2.38073 0.160997 2.44274 0.249546 2.46957 0.349274L2.87205 1.84314H14.4099C14.4829 1.8432 14.5549 1.85816 14.621 1.88696C14.687 1.91576 14.7454 1.95768 14.7919 2.00976C14.8385 2.06184 14.8722 2.12279 14.8905 2.18828C14.9088 2.25377 14.9113 2.3222 14.8979 2.38871L13.4072 9.76126C13.3859 9.86685 13.3255 9.96221 13.2364 10.0309C13.1473 10.0995 13.0351 10.1372 12.9193 10.1373H3.97516C3.85931 10.1372 3.74715 10.0995 3.65805 10.0309C3.56895 9.96221 3.50852 9.86685 3.48721 9.76126L1.99752 2.40253L1.6 0.921569H0.496894C0.36511 0.921569 0.238723 0.873022 0.145537 0.786608C0.0523512 0.700194 0 0.582992 0 0.460784ZM3.08273 2.76471L4.38758 9.21569H12.5068L13.8117 2.76471H3.08273ZM4.96894 10.1373C4.44181 10.1373 3.93626 10.3314 3.56351 10.6771C3.19077 11.0228 2.98137 11.4916 2.98137 11.9804C2.98137 12.4692 3.19077 12.938 3.56351 13.2837C3.93626 13.6293 4.44181 13.8235 4.96894 13.8235C5.49608 13.8235 6.00163 13.6293 6.37437 13.2837C6.74712 12.938 6.95652 12.4692 6.95652 11.9804C6.95652 11.4916 6.74712 11.0228 6.37437 10.6771C6.00163 10.3314 5.49608 10.1373 4.96894 10.1373ZM11.9255 10.1373C11.3983 10.1373 10.8928 10.3314 10.52 10.6771C10.1473 11.0228 9.93789 11.4916 9.93789 11.9804C9.93789 12.4692 10.1473 12.938 10.52 13.2837C10.8928 13.6293 11.3983 13.8235 11.9255 13.8235C12.4526 13.8235 12.9582 13.6293 13.3309 13.2837C13.7036 12.938 13.913 12.4692 13.913 11.9804C13.913 11.4916 13.7036 11.0228 13.3309 10.6771C12.9582 10.3314 12.4526 10.1373 11.9255 10.1373ZM4.96894 11.0588C5.23251 11.0588 5.48529 11.1559 5.67166 11.3287C5.85803 11.5016 5.96273 11.736 5.96273 11.9804C5.96273 12.2248 5.85803 12.4592 5.67166 12.632C5.48529 12.8049 5.23251 12.902 4.96894 12.902C4.70538 12.902 4.4526 12.8049 4.26623 12.632C4.07986 12.4592 3.97516 12.2248 3.97516 11.9804C3.97516 11.736 4.07986 11.5016 4.26623 11.3287C4.4526 11.1559 4.70538 11.0588 4.96894 11.0588ZM11.9255 11.0588C12.189 11.0588 12.4418 11.1559 12.6282 11.3287C12.8146 11.5016 12.9193 11.736 12.9193 11.9804C12.9193 12.2248 12.8146 12.4592 12.6282 12.632C12.4418 12.8049 12.189 12.902 11.9255 12.902C11.6619 12.902 11.4091 12.8049 11.2228 12.632C11.0364 12.4592 10.9317 12.2248 10.9317 11.9804C10.9317 11.736 11.0364 11.5016 11.2228 11.3287C11.4091 11.1559 11.6619 11.0588 11.9255 11.0588Z" fill="white"/>
</svg>
